<svg width="24" height="24" viewBox="0 0 24 24" fill="none" xmlns="http://www.w3.org/2000/svg">
<path fill-rule="evenodd" clip-rule="evenodd" d="M1.75 2C1.33579 2 1 2.33579 1 2.75C1 3.16421 1.33579 3.5 1.75 3.5H4.63636V6.48333V14.75C4.63636 16.2688 5.86758 17.5 7.38636 17.5H18.2549C19.5887 17.5 20.7302 16.5429 20.9628 15.2296L22.0726 8.96288C22.3709 7.27847 21.0753 5.73333 19.3647 5.73333H6.13636V2.75V2H5.38636H1.75ZM6.13636 14.75V7.23333H19.3647C20.1422 7.23333 20.7311 7.93567 20.5955 8.70131L19.4857 14.968C19.38 15.565 18.8612 16 18.2549 16H7.38636C6.69601 16 6.13636 15.4404 6.13636 14.75ZM12.75 10C12.3358 10 12 10.3358 12 10.75C12 11.1642 12.3358 11.5 12.75 11.5H16.75C17.1642 11.5 17.5 11.1642 17.5 10.75C17.5 10.3358 17.1642 10 16.75 10H12.75ZM7.75 20.25C7.75 21.0784 7.07843 21.75 6.25 21.75C5.42157 21.75 4.75 21.0784 4.75 20.25C4.75 19.4216 5.42157 18.75 6.25 18.75C7.07843 18.75 7.75 19.4216 7.75 20.25ZM19.25 21.75C20.0784 21.75 20.75 21.0784 20.75 20.25C20.75 19.4216 20.0784 18.75 19.25 18.75C18.4216 18.75 17.75 19.4216 17.75 20.25C17.75 21.0784 18.4216 21.75 19.25 21.75Z" fill="#F2F2F2"/>
</svg>
