<svg width="128" height="22" viewBox="0 0 128 22" fill="none" xmlns="http://www.w3.org/2000/svg">
<path d="M0.0168802 3.57613C0.0337605 6.82449 0.0438886 7.05873 0.202563 7.70633C0.72585 9.85583 2.4105 11.5954 4.46988 12.1087C5.16535 12.2844 5.04719 12.2809 9.28075 12.2809C13.467 12.2809 13.4603 12.2809 13.9937 12.4394C15.2597 12.8148 16.2827 13.9206 16.6473 15.3157C16.7216 15.5947 16.7249 15.6533 16.7249 17.2413V18.8775L15.4522 18.8879L14.176 18.8948V19.0257C14.176 19.0945 14.1659 19.6767 14.1558 20.314L14.1389 21.4783H16.6709C18.0618 21.4783 19.2266 21.4886 19.257 21.499C19.3042 21.5196 19.311 21.2613 19.3009 18.3229L19.2874 15.1228L19.1962 14.6681C18.7607 12.522 17.3799 10.7997 15.5062 10.0625C15.1855 9.93506 14.6352 9.79383 14.3111 9.74905C14.2098 9.73527 14.095 9.71804 14.0579 9.70771C14.0207 9.69738 12.0761 9.68015 9.73652 9.66637L5.4827 9.6457L5.1721 9.53547C4.34497 9.23923 3.67651 8.72597 3.2275 8.03703C2.98105 7.66155 2.7346 7.04839 2.6772 6.66603C2.66708 6.60058 2.64344 6.47657 2.62319 6.39046C2.60293 6.30434 2.58268 5.55684 2.57255 4.67499L2.55567 3.11798H3.90271C4.64544 3.11798 5.25988 3.11109 5.26663 3.1042C5.27338 3.09731 5.27676 2.50827 5.27001 1.79521L5.26326 0.503446H0L0.0168802 3.57613Z" fill="white"/>
<path d="M2.62994 12.3739C2.62994 12.522 2.85276 13.4418 2.99118 13.8655C3.09583 14.1893 3.53472 15.0642 3.78455 15.45C4.50702 16.5592 5.46582 17.4204 6.47863 17.8648L6.7656 17.9922L6.90064 17.9233C7.40367 17.665 9.7534 16.1252 9.7534 16.0563C9.7534 16.0322 9.68588 16.0184 9.57447 16.0184C9.31114 16.0219 8.79122 15.9461 8.50088 15.8634C7.28551 15.5258 6.25244 14.644 5.67176 13.459L5.53334 13.1765H5.30377C4.53403 13.1765 3.62925 12.9182 2.93041 12.5014C2.67045 12.3464 2.62994 12.3291 2.62994 12.3739Z" fill="white"/>
<path d="M1.26264 13.1007L0.0135036 13.1076L0.0101276 17.293C0.00675151 20.3794 0.0135036 21.4783 0.043888 21.4852C0.118161 21.5093 7.00529 21.4542 7.13696 21.4301C7.97084 21.2716 8.43674 21.1166 9.07481 20.7893C9.65549 20.4931 10.1248 20.1727 11.3773 19.2151C11.9276 18.7949 12.5791 18.3023 12.829 18.1231C13.0788 17.944 13.2982 17.7821 13.3151 17.7683C13.3354 17.7511 13.4265 17.6857 13.5177 17.6202C13.6966 17.4996 14.1423 17.1242 14.3482 16.9278C14.7567 16.5317 15.3846 15.6774 15.6817 15.109L15.7796 14.923L15.4758 14.6302C15.2125 14.3787 14.4967 13.7484 13.9498 13.2868C13.781 13.1455 13.7743 13.1421 13.7371 13.211C13.7169 13.2489 13.7101 13.2799 13.7202 13.2799C13.7776 13.2799 13.3354 14.0756 13.0991 14.3994C12.6973 14.9471 12.4812 15.1297 10.5805 16.5351C9.89519 17.0415 9.13558 17.6064 8.89588 17.7856C8.11601 18.3712 7.61298 18.6295 6.91752 18.7983C6.60354 18.8741 6.55628 18.8775 4.58805 18.8775H2.5793L2.56917 16.0012C2.56579 14.4201 2.55229 13.118 2.53541 13.1076C2.52191 13.0973 1.95135 13.0939 1.26264 13.1007Z" fill="white"/>
<path d="M16.6743 9.61723C16.6743 9.46911 16.4515 8.54937 16.313 8.12567C16.2084 7.80187 15.7695 6.92691 15.5197 6.5411C14.7972 5.43191 13.8384 4.57073 12.8256 4.12636L12.5386 3.99891L12.4036 4.0678C11.9006 4.32615 9.55083 5.86594 9.55083 5.93483C9.55083 5.95895 9.61835 5.97273 9.72976 5.97273C9.99309 5.96928 10.513 6.04506 10.8033 6.12774C12.0187 6.46532 13.0518 7.34717 13.6325 8.53215L13.7709 8.81461H14.0005C14.7702 8.81461 15.675 9.07296 16.3738 9.48977C16.6338 9.64479 16.6743 9.66201 16.6743 9.61723Z" fill="white"/>
<path d="M18.0416 8.8904L19.2907 8.88351L19.2941 4.69818C19.2975 1.61172 19.2907 0.512861 19.2603 0.505972C19.1861 0.481859 12.2989 0.536974 12.1673 0.561086C11.3334 0.719543 10.8675 0.874555 10.2294 1.2018C9.64874 1.49805 9.17947 1.81841 7.92696 2.77603C7.37666 3.19629 6.72508 3.68888 6.47526 3.86801C6.22543 4.04713 6.00599 4.20903 5.98911 4.22281C5.96885 4.24004 5.8777 4.30549 5.78654 4.37094C5.60761 4.4915 5.16198 4.86697 4.95604 5.06332C4.54754 5.45946 3.91959 6.31375 3.6225 6.88213L3.52459 7.06814L3.82844 7.36094C4.09177 7.61241 4.80749 8.24279 5.35441 8.70438C5.52321 8.84561 5.52996 8.84906 5.5671 8.78016C5.58736 8.74227 5.59411 8.71127 5.58398 8.71127C5.52659 8.71127 5.96885 7.91554 6.20517 7.59174C6.60692 7.04403 6.82299 6.86146 8.7237 5.45602C9.40904 4.94965 10.1687 4.38471 10.4083 4.20559C11.1882 3.61999 11.6912 3.36164 12.3867 3.19284C12.7007 3.11706 12.748 3.11362 14.7162 3.11362L16.7249 3.11362L16.7351 5.98995C16.7384 7.57107 16.7519 8.87317 16.7688 8.88351C16.7823 8.89384 17.3529 8.89729 18.0416 8.8904Z" fill="white"/>
<path d="M25.1803 18.2174V3.90377H28.6664V18.2174H25.1803ZM27.9458 18.2174V15.1689H35.4242V18.2174H27.9458ZM27.9458 12.4031V9.4354H34.7231V12.4031H27.9458ZM27.9458 6.95222V3.90377H35.3074V6.95222H27.9458Z" fill="white"/>
<path d="M39.6299 18.2174L35.7544 8.34522H39.3768L41.8501 16.6629H40.4674L42.9212 8.34522H46.5047L42.6291 18.1972L39.6299 18.2174Z" fill="white"/>
<path d="M51.6672 18.4394C50.6026 18.4394 49.6613 18.2241 48.8434 17.7934C48.0254 17.3493 47.3827 16.7369 46.9153 15.9563C46.4479 15.1756 46.2142 14.2806 46.2142 13.2712C46.2142 12.2752 46.4414 11.3937 46.8958 10.6265C47.3503 9.8459 47.967 9.23351 48.746 8.78937C49.538 8.33176 50.4273 8.10296 51.4141 8.10296C52.3748 8.10296 53.2253 8.3183 53.9653 8.74899C54.7183 9.16622 55.3026 9.75168 55.7181 10.5054C56.1465 11.2456 56.3607 12.0935 56.3607 13.0491C56.3607 13.251 56.3478 13.4596 56.3218 13.675C56.3088 13.8769 56.2699 14.1124 56.2049 14.3816L47.8112 14.4219V12.1608L54.8612 12.1003L53.3421 13.0895C53.3291 12.5377 53.2512 12.0868 53.1084 11.7369C52.9656 11.3735 52.7579 11.0976 52.4852 10.9092C52.2125 10.7207 51.8685 10.6265 51.453 10.6265C51.0246 10.6265 50.6545 10.7342 50.3429 10.9495C50.0313 11.1649 49.7911 11.4677 49.6224 11.858C49.4536 12.2483 49.3692 12.7194 49.3692 13.2712C49.3692 13.8365 49.4601 14.321 49.6418 14.7248C49.8236 15.1151 50.0833 15.4112 50.4208 15.6131C50.7584 15.8149 51.1739 15.9159 51.6672 15.9159C52.1346 15.9159 52.5436 15.8351 52.8942 15.6736C53.2577 15.5121 53.5823 15.2631 53.8679 14.9266L55.6402 16.7638C55.1728 17.3156 54.6015 17.7328 53.9264 18.0155C53.2642 18.2981 52.5112 18.4394 51.6672 18.4394Z" fill="white"/>
<path d="M57.251 18.2174V8.34522H60.6396V18.2174H57.251ZM60.6396 12.8472L59.1206 11.5148C59.4971 10.3977 59.997 9.55653 60.6202 8.99125C61.2434 8.42598 62.0548 8.14334 63.0546 8.14334C63.509 8.14334 63.8985 8.2039 64.2231 8.32503C64.5606 8.44616 64.8463 8.63459 65.08 8.89031L63.113 11.6157C63.0091 11.4946 62.8598 11.4004 62.6651 11.3331C62.4833 11.2524 62.2756 11.212 62.0419 11.212C61.6004 11.212 61.2564 11.3533 61.0097 11.6359C60.763 11.9051 60.6396 12.3089 60.6396 12.8472Z" fill="white"/>
<path d="M70.2433 18.4394C69.0878 18.4394 68.0816 18.2577 67.2247 17.8943C66.3807 17.531 65.6082 16.959 64.9071 16.1783L67.1078 13.8769C67.5882 14.4018 68.101 14.8055 68.6463 15.0882C69.1917 15.3573 69.8084 15.4919 70.4965 15.4919C71.0807 15.4919 71.5287 15.391 71.8403 15.1891C72.1649 14.9738 72.3271 14.6844 72.3271 14.321C72.3271 13.9845 72.2103 13.7086 71.9766 13.4933C71.7429 13.2645 71.4313 13.0693 71.0418 12.9078C70.6653 12.7328 70.2433 12.5713 69.7759 12.4233C69.3215 12.2618 68.8606 12.0734 68.3932 11.858C67.9388 11.6292 67.5168 11.3533 67.1273 11.0303C66.7508 10.7073 66.4457 10.3035 66.212 9.81898C65.9783 9.33446 65.8614 8.73553 65.8614 8.02221C65.8614 7.107 66.0691 6.32638 66.4846 5.68035C66.9131 5.03432 67.5038 4.53634 68.2568 4.18641C69.0099 3.83647 69.8863 3.66151 70.886 3.66151C71.8857 3.66151 72.8075 3.83647 73.6515 4.18641C74.4954 4.53634 75.19 5.02086 75.7353 5.63997L73.5151 7.92126C73.0997 7.49058 72.6777 7.16756 72.2492 6.95222C71.8208 6.73688 71.3534 6.62921 70.847 6.62921C70.3666 6.62921 69.9901 6.71669 69.7175 6.89165C69.4448 7.06662 69.3085 7.31561 69.3085 7.63863C69.3085 7.96164 69.4254 8.22409 69.6591 8.42598C69.8928 8.62786 70.1979 8.80956 70.5744 8.97106C70.9639 9.11911 71.3858 9.27389 71.8403 9.4354C72.3077 9.5969 72.7686 9.78533 73.223 10.0007C73.6774 10.216 74.0929 10.4919 74.4694 10.8284C74.8589 11.1649 75.1705 11.5888 75.4042 12.1003C75.6379 12.6117 75.7548 13.2308 75.7548 13.9576C75.7548 15.3843 75.2679 16.4879 74.2941 17.2685C73.3334 18.0491 71.9831 18.4394 70.2433 18.4394Z" fill="white"/>
<path d="M83.0716 18.2174V12.6454C83.0716 12.1878 82.9418 11.8311 82.6821 11.5754C82.4225 11.3062 82.0914 11.1716 81.6889 11.1716C81.4162 11.1716 81.1696 11.2322 80.9488 11.3533C80.7411 11.4744 80.5788 11.6427 80.462 11.858C80.3451 12.0734 80.2867 12.3358 80.2867 12.6454L78.9624 11.9993C78.9624 11.2052 79.1312 10.5256 79.4687 9.9603C79.8063 9.38156 80.2672 8.93742 80.8515 8.62786C81.4487 8.30485 82.1238 8.14334 82.8769 8.14334C83.565 8.14334 84.1752 8.31157 84.7075 8.64805C85.2528 8.97106 85.6813 9.40848 85.9929 9.9603C86.3045 10.5121 86.4603 11.138 86.4603 11.8378V18.2174H83.0716ZM76.898 18.2174V8.34522H80.2867V18.2174H76.898Z" fill="white"/>
<path d="M92.673 18.4394C91.6084 18.4394 90.6671 18.2241 89.8491 17.7934C89.0312 17.3493 88.3885 16.7369 87.9211 15.9563C87.4537 15.1756 87.22 14.2806 87.22 13.2712C87.22 12.2752 87.4472 11.3937 87.9016 10.6265C88.356 9.8459 88.9727 9.23351 89.7517 8.78937C90.5437 8.33176 91.4331 8.10296 92.4198 8.10296C93.3806 8.10296 94.231 8.3183 94.9711 8.74899C95.7241 9.16622 96.3084 9.75168 96.7238 10.5054C97.1523 11.2456 97.3665 12.0935 97.3665 13.0491C97.3665 13.251 97.3535 13.4596 97.3276 13.675C97.3146 13.8769 97.2756 14.1124 97.2107 14.3816L88.8169 14.4219V12.1608L95.8669 12.1003L94.3479 13.0895C94.3349 12.5377 94.257 12.0868 94.1142 11.7369C93.9714 11.3735 93.7636 11.0976 93.491 10.9092C93.2183 10.7207 92.8743 10.6265 92.4588 10.6265C92.0303 10.6265 91.6603 10.7342 91.3487 10.9495C91.0371 11.1649 90.7969 11.4677 90.6281 11.858C90.4593 12.2483 90.3749 12.7194 90.3749 13.2712C90.3749 13.8365 90.4658 14.321 90.6476 14.7248C90.8294 15.1151 91.089 15.4112 91.4266 15.6131C91.7642 15.8149 92.1796 15.9159 92.673 15.9159C93.1404 15.9159 93.5494 15.8351 93.8999 15.6736C94.2635 15.5121 94.5881 15.2631 94.8737 14.9266L96.6459 16.7638C96.1785 17.3156 95.6073 17.7328 94.9321 18.0155C94.27 18.2981 93.5169 18.4394 92.673 18.4394Z" fill="white"/>
<path d="M102.23 18.4192C101.347 18.4192 100.561 18.1972 99.8732 17.753C99.1851 17.3089 98.6462 16.7032 98.2567 15.9361C97.8672 15.1555 97.6725 14.2739 97.6725 13.2914C97.6725 12.2954 97.8672 11.4071 98.2567 10.6265C98.6462 9.8459 99.1851 9.24024 99.8732 8.80956C100.561 8.36541 101.347 8.14334 102.23 8.14334C102.827 8.14334 103.372 8.25774 103.866 8.48654C104.359 8.70188 104.761 9.01144 105.073 9.41521C105.398 9.81898 105.592 10.2766 105.657 10.788V15.7544C105.592 16.2793 105.398 16.7436 105.073 17.1474C104.761 17.5377 104.359 17.8472 103.866 18.076C103.372 18.3048 102.827 18.4192 102.23 18.4192ZM102.95 15.29C103.509 15.29 103.956 15.1016 104.294 14.7248C104.645 14.3479 104.82 13.8634 104.82 13.2712C104.82 12.8809 104.742 12.5377 104.586 12.2416C104.43 11.9455 104.21 11.71 103.924 11.535C103.651 11.36 103.333 11.2725 102.97 11.2725C102.606 11.2725 102.282 11.36 101.996 11.535C101.723 11.71 101.503 11.9522 101.334 12.2618C101.178 12.5579 101.1 12.8943 101.1 13.2712C101.1 13.6615 101.178 14.0114 101.334 14.321C101.49 14.6171 101.71 14.8526 101.996 15.0276C102.282 15.2026 102.6 15.29 102.95 15.29ZM104.684 18.2174V15.5727L105.17 13.1501L104.684 10.7678V8.34522H108.014V18.2174H104.684Z" fill="white"/>
<path d="M115.717 18.2174L112.718 13.0491L115.697 8.34522H119.417L115.717 13.6548L115.814 12.3627L119.612 18.2174H115.717ZM109.602 18.2174V3.5H112.99V18.2174H109.602Z" fill="white"/>
<path d="M123.257 18.5C122.673 18.5 122.095 18.4192 121.524 18.2577C120.965 18.0962 120.439 17.8809 119.946 17.6117C119.466 17.3291 119.057 17.0061 118.719 16.6427L120.569 14.6844C120.881 15.0209 121.251 15.2833 121.679 15.4717C122.121 15.6602 122.588 15.7544 123.082 15.7544C123.367 15.7544 123.581 15.714 123.724 15.6332C123.88 15.5525 123.958 15.4381 123.958 15.29C123.958 15.0747 123.848 14.9132 123.627 14.8055C123.419 14.6844 123.14 14.5834 122.789 14.5027C122.452 14.4085 122.095 14.3008 121.718 14.1797C121.342 14.0451 120.978 13.8701 120.628 13.6548C120.277 13.4394 119.992 13.1366 119.771 12.7463C119.563 12.356 119.459 11.858 119.459 11.2524C119.459 10.6198 119.621 10.068 119.946 9.5969C120.284 9.11238 120.751 8.73553 121.348 8.46635C121.946 8.18371 122.647 8.0424 123.452 8.0424C124.27 8.0424 125.049 8.19044 125.789 8.48654C126.529 8.76918 127.126 9.19987 127.58 9.7786L125.711 11.7369C125.399 11.3735 125.055 11.1245 124.679 10.9899C124.302 10.8419 123.958 10.7678 123.646 10.7678C123.348 10.7678 123.134 10.8149 123.004 10.9092C122.874 10.9899 122.809 11.1043 122.809 11.2524C122.809 11.4273 122.913 11.5686 123.121 11.6763C123.341 11.784 123.62 11.8849 123.958 11.9791C124.309 12.0599 124.666 12.1676 125.029 12.3022C125.406 12.4367 125.763 12.6252 126.1 12.8674C126.451 13.0962 126.73 13.4058 126.938 13.7961C127.158 14.1864 127.269 14.6911 127.269 15.3102C127.269 16.2927 126.905 17.0734 126.178 17.6521C125.451 18.2174 124.477 18.5 123.257 18.5Z" fill="white"/>
</svg>
