<svg width="24" height="24" viewBox="0 0 24 24" fill="none" xmlns="http://www.w3.org/2000/svg">
<mask id="path-1-inside-1_11_246" fill="white">
<path fill-rule="evenodd" clip-rule="evenodd" d="M4 2C2.89543 2 2 2.89543 2 4V9C2 10.1046 2.89543 11 4 11H9C10.1046 11 11 10.1046 11 9V4C11 2.89543 10.1046 2 9 2H4ZM15 2C13.8954 2 13 2.89543 13 4V9C13 10.1046 13.8954 11 15 11H20C21.1046 11 22 10.1046 22 9V4C22 2.89543 21.1046 2 20 2H15ZM13 15C13 13.8954 13.8954 13 15 13H20C21.1046 13 22 13.8954 22 15V20C22 21.1046 21.1046 22 20 22H15C13.8954 22 13 21.1046 13 20V15ZM4 13C2.89543 13 2 13.8954 2 15V20C2 21.1046 2.89543 22 4 22H9C10.1046 22 11 21.1046 11 20V15C11 13.8954 10.1046 13 9 13H4Z"/>
</mask>
<path d="M3 4C3 3.44772 3.44772 3 4 3V1C2.34315 1 1 2.34315 1 4H3ZM3 9V4H1V9H3ZM4 10C3.44772 10 3 9.55228 3 9H1C1 10.6569 2.34315 12 4 12V10ZM9 10H4V12H9V10ZM10 9C10 9.55228 9.55228 10 9 10V12C10.6569 12 12 10.6569 12 9H10ZM10 4V9H12V4H10ZM9 3C9.55228 3 10 3.44772 10 4H12C12 2.34315 10.6569 1 9 1V3ZM4 3H9V1H4V3ZM14 4C14 3.44772 14.4477 3 15 3V1C13.3431 1 12 2.34315 12 4H14ZM14 9V4H12V9H14ZM15 10C14.4477 10 14 9.55228 14 9H12C12 10.6569 13.3431 12 15 12V10ZM20 10H15V12H20V10ZM21 9C21 9.55229 20.5523 10 20 10V12C21.6569 12 23 10.6569 23 9H21ZM21 4V9H23V4H21ZM20 3C20.5523 3 21 3.44772 21 4H23C23 2.34315 21.6569 1 20 1V3ZM15 3H20V1H15V3ZM15 12C13.3431 12 12 13.3431 12 15H14C14 14.4477 14.4477 14 15 14V12ZM20 12H15V14H20V12ZM23 15C23 13.3431 21.6569 12 20 12V14C20.5523 14 21 14.4477 21 15H23ZM23 20V15H21V20H23ZM20 23C21.6569 23 23 21.6569 23 20H21C21 20.5523 20.5523 21 20 21V23ZM15 23H20V21H15V23ZM12 20C12 21.6569 13.3431 23 15 23V21C14.4477 21 14 20.5523 14 20H12ZM12 15V20H14V15H12ZM3 15C3 14.4477 3.44772 14 4 14V12C2.34315 12 1 13.3431 1 15H3ZM3 20V15H1V20H3ZM4 21C3.44771 21 3 20.5523 3 20H1C1 21.6569 2.34315 23 4 23V21ZM9 21H4V23H9V21ZM10 20C10 20.5523 9.55229 21 9 21V23C10.6569 23 12 21.6569 12 20H10ZM10 15V20H12V15H10ZM9 14C9.55228 14 10 14.4477 10 15H12C12 13.3431 10.6569 12 9 12V14ZM4 14H9V12H4V14Z" fill="#F2F2F2" mask="url(#path-1-inside-1_11_246)"/>
</svg>
