<svg width="24" height="24" viewBox="0 0 24 24" fill="none" xmlns="http://www.w3.org/2000/svg">
<path d="M4 10.0459V19C4 19.5523 4.44771 20 5 20H8.6C9.15228 20 9.6 19.5523 9.6 19V16.159C9.6 15.6068 10.0477 15.159 10.6 15.159H13.4C13.9523 15.159 14.4 15.6068 14.4 16.159V19C14.4 19.5523 14.8477 20 15.4 20H19C19.5523 20 20 19.5523 20 19V10.0459C20 9.74673 19.866 9.46325 19.6348 9.2733L12.6348 3.52163C12.2659 3.21848 11.7341 3.21848 11.3652 3.52163L4.36515 9.2733C4.13398 9.46325 4 9.74673 4 10.0459Z" stroke="#F2F2F2" stroke-width="1.5"/>
</svg>
