<svg width="24" height="24" viewBox="0 0 24 24" fill="none" xmlns="http://www.w3.org/2000/svg">
<path fill-rule="evenodd" clip-rule="evenodd" d="M16.2502 9C16.2502 11.4853 14.2355 13.5 11.7502 13.5C9.26493 13.5 7.25021 11.4853 7.25021 9C7.25021 6.51472 9.26493 4.5 11.7502 4.5C14.2355 4.5 16.2502 6.51472 16.2502 9ZM17.7502 9C17.7502 12.3137 15.0639 15 11.7502 15C8.4365 15 5.75021 12.3137 5.75021 9C5.75021 5.68629 8.4365 3 11.7502 3C15.0639 3 17.7502 5.68629 17.7502 9ZM6.45247 21.2632C7.21187 19.2369 9.28056 17.75 11.7502 17.75C14.2198 17.75 16.2885 19.2369 17.0479 21.2632C17.1932 21.6511 17.6255 21.8477 18.0134 21.7023C18.4012 21.5569 18.5978 21.1247 18.4525 20.7368C17.4651 18.1023 14.8207 16.25 11.7502 16.25C8.67967 16.25 6.03521 18.1023 5.04787 20.7368C4.90251 21.1247 5.0991 21.5569 5.48697 21.7023C5.87484 21.8477 6.30711 21.6511 6.45247 21.2632Z" fill="#F2F2F2"/>
</svg>
