<svg width="456" height="456" viewBox="0 0 456 456" fill="none" xmlns="http://www.w3.org/2000/svg">
	<path fill-rule="evenodd" clip-rule="evenodd" d="M234.244 29H324.059C332.397 29 337.594 38.0411 333.425 45.2414L227.964 227.903L170.578 128.452L224.878 34.4138C226.773 31.0572 230.346 29 234.244 29ZM170.535 128.451L122.515 45.2408C118.346 38.0405 107.951 38.0405 103.783 45.2408L1.46173 222.489C-0.487243 225.846 -0.487243 229.96 1.46173 233.317L46.3963 311.113C50.565 318.313 60.9595 318.313 65.1281 311.113L170.535 128.451ZM454.533 222.489L409.598 144.693C405.429 137.492 395.035 137.492 390.866 144.693L285.459 327.354L333.48 410.565C337.649 417.765 348.043 417.765 352.212 410.565L454.533 233.317C456.482 229.96 456.482 225.846 454.533 222.489ZM285.426 327.355L227.985 227.903L122.579 410.565C118.41 417.766 123.607 426.807 131.944 426.807H221.76C225.603 426.807 229.176 424.75 231.125 421.393L285.426 327.355Z" fill="#000000"/>
</svg>
